<svg width="460" height="98" viewBox="0 0 460 98" fill="none" xmlns="http://www.w3.org/2000/svg">
<path d="M114.287 76.2222H125.965V55.6714H151.293V45.0547H125.965V33.7556H154.706V23.1389H114.287V76.2222Z" fill="#0046AD"/>
<path d="M179.421 77.1322C186.777 77.1322 192.237 74.2506 196.028 69.5489L189.431 63.7097C186.246 66.6672 183.44 67.8806 179.572 67.8806C174.416 67.8806 170.776 65.1506 169.638 59.9181H197.924C198 58.8564 198.076 57.7947 198.076 56.8847C198.076 45.3581 191.857 34.8172 178.283 34.8172C166.453 34.8172 158.187 44.3722 158.187 55.9747V56.1264C158.187 68.5631 167.212 77.1322 179.421 77.1322ZM169.487 52.7139C170.397 47.4814 173.506 44.0689 178.283 44.0689C183.137 44.0689 186.17 47.5572 186.852 52.7139H169.487Z" fill="#0046AD"/>
<path d="M216.624 76.9806C222.236 76.9806 226.103 74.9331 228.909 71.8239V76.2222H240.056V52.6381C240.056 47.1781 238.691 42.7039 235.658 39.6706C232.776 36.7889 228.226 35.1206 221.932 35.1206C215.031 35.1206 210.633 36.4097 206.159 38.3814L209.041 47.1781C212.756 45.8131 215.866 44.9789 220.264 44.9789C226.027 44.9789 228.985 47.6331 228.985 52.4106V53.0931C226.103 52.1072 223.146 51.4247 219.051 51.4247C209.42 51.4247 202.671 55.5197 202.671 64.3922V64.5439C202.671 72.5822 208.965 76.9806 216.624 76.9806ZM220.112 69.0181C216.396 69.0181 213.818 67.1981 213.818 64.0889V63.9372C213.818 60.2972 216.851 58.3256 221.781 58.3256C224.586 58.3256 227.165 58.9322 229.136 59.8422V61.8897C229.136 66.0606 225.496 69.0181 220.112 69.0181Z" fill="#0046AD"/>
<path d="M261.762 76.9047C265.629 76.9047 268.435 75.9947 270.862 74.5539V65.3022C269.193 66.2122 267.298 66.7431 265.174 66.7431C262.596 66.7431 261.458 65.4539 261.458 62.7997V45.4339H271.013V35.5756H261.458V25.1864H249.932V35.5756H245.078V45.4339H249.932V64.6956C249.932 74.0989 254.709 76.9047 261.762 76.9047Z" fill="#0046AD"/>
<path d="M277.941 76.2222H289.467V53.5481C289.467 48.0881 292.273 45.2822 296.672 45.2822C301.07 45.2822 303.648 48.0881 303.648 53.5481V76.2222H315.175V49.9081C315.175 40.5806 310.094 34.8172 301.373 34.8172C295.534 34.8172 292.122 37.9264 289.467 41.3389V20.8639H277.941V76.2222Z" fill="#0046AD"/>
<path d="M342.881 77.1322C350.237 77.1322 355.697 74.2506 359.489 69.5489L352.891 63.7097C349.706 66.6672 346.9 67.8806 343.033 67.8806C337.876 67.8806 334.236 65.1506 333.099 59.9181H361.384C361.46 58.8564 361.536 57.7947 361.536 56.8847C361.536 45.3581 355.318 34.8172 341.744 34.8172C329.914 34.8172 321.648 44.3722 321.648 55.9747V56.1264C321.648 68.5631 330.672 77.1322 342.881 77.1322ZM332.947 52.7139C333.857 47.4814 336.966 44.0689 341.744 44.0689C346.597 44.0689 349.63 47.5572 350.313 52.7139H332.947Z" fill="#0046AD"/>
<path d="M368.558 76.2222H380.084V61.2072C380.084 51.5006 384.786 46.8747 392.445 46.8747H393.052V34.8172C386.227 34.5139 382.435 38.1539 380.084 43.7656V35.5756H368.558V76.2222Z" fill="#0046AD"/>
<path d="M399.746 76.2222H404.751V69.7764H399.746V76.2222Z" fill="#0046AD"/>
<path d="M416.565 27.4614H421.19V22.3806H416.565V27.4614ZM412.47 88.5831C417.475 88.5831 420.735 85.7014 420.735 79.6347V37.5472H417.02V79.8622C417.02 83.5022 415.124 85.2464 412.394 85.2464C411.56 85.2464 410.27 85.1706 409.36 85.0189V88.2797C410.498 88.5072 411.408 88.5831 412.47 88.5831Z" fill="#0046AD"/>
<path d="M446.317 76.9806C453.748 76.9806 459.663 72.5822 459.663 65.6814V65.5297C459.663 58.7047 453.142 56.4297 446.923 54.6856C441.387 53.0931 436.155 51.5006 436.155 47.1781V47.0264C436.155 43.1589 439.643 40.2772 444.952 40.2772C449.047 40.2772 453.293 41.7939 456.857 44.1447L458.829 41.0356C454.962 38.4572 449.729 36.7889 445.103 36.7889C437.596 36.7889 432.363 41.2631 432.363 47.4814V47.6331C432.363 54.5339 439.34 56.4297 445.634 58.2497C451.018 59.7664 455.872 61.4347 455.872 65.9847V66.1364C455.872 70.6106 451.777 73.4922 446.544 73.4922C441.615 73.4922 436.913 71.6722 432.667 68.4114L430.467 71.3689C434.562 74.7056 440.705 76.9806 446.317 76.9806Z" fill="#0046AD"/>
<path d="M61.6726 60.3202L42.04 71.6521V48.9825L61.6726 37.6448V60.3202V60.3202Z" fill="#0E3CA5"/>
<path d="M42.04 48.9825L22.4015 37.6448L42.04 26.3071L61.6726 37.6448L42.04 48.9825Z" fill="#5493F7"/>
<path d="M64.5755 84.966L44.9429 73.6282V50.9528L64.5755 62.2905V84.966Z" fill="#1148B7"/>
<path d="M84.214 73.6282L64.5755 84.966V62.2905L84.214 50.9528V73.6282V73.6282Z" fill="#0E3CA5"/>
<path d="M64.5755 62.2905L44.9429 50.9528L64.5755 39.6208L84.214 50.9528L64.5755 62.2905Z" fill="#5493F7"/>
<path d="M19.6385 84.6862L0 73.3543V50.6788L19.6385 62.0166V84.6862Z" fill="#1148B7"/>
<path d="M39.2711 73.3543L19.6385 84.6862V62.0166L39.2711 50.6788V73.3543Z" fill="#0E3CA5"/>
<path d="M19.6385 62.0165L0 50.6788L19.6385 39.3411L39.2711 50.6788L19.6385 62.0165V62.0165Z" fill="#5493F7"/>
<path d="M42.1741 98L22.5414 86.6623V63.9868L42.1741 75.3246V98Z" fill="#1148B7"/>
<path d="M61.8125 86.6623L42.174 98V75.3246L61.8125 63.9868V86.6623V86.6623Z" fill="#0E3CA5"/>
<path d="M42.1741 75.3244L22.5414 63.9867L42.1741 52.6548L61.8125 63.9867L42.1741 75.3244Z" fill="#5493F7"/>
<path d="M42.0458 45.3451L22.4073 34.0074V11.3378L42.0458 22.6755V45.3451V45.3451Z" fill="#1148B7"/>
<path d="M61.6785 34.0074L42.0458 45.3451V22.6755L61.6785 11.3378V34.0074Z" fill="#0E3CA5"/>
<path d="M42.0458 22.6755L22.4073 11.3377L42.0458 0L61.6784 11.3377L42.0458 22.6755Z" fill="#5493F7"/>
<path d="M64.5814 58.6589L44.9487 47.3212V24.6457L64.5814 35.9834V58.6589V58.6589Z" fill="#1148B7"/>
<path d="M84.2198 47.3212L64.5814 58.6589V35.9834L84.2198 24.6457V47.3212Z" fill="#0E3CA5"/>
<path d="M64.5814 35.9835L44.9487 24.6458L64.5814 13.308L84.2198 24.6458L64.5814 35.9835V35.9835Z" fill="#5493F7"/>
<path d="M19.6385 58.3791L0.00585938 47.0413V24.3717L19.6385 35.7094V58.3791Z" fill="#1148B7"/>
<path d="M39.2769 47.0413L19.6385 58.3791V35.7094L39.2769 24.3717V47.0413Z" fill="#0E3CA5"/>
<path d="M19.6385 35.7095L0.00585938 24.3718L19.6385 13.0341L39.277 24.3718L19.6385 35.7095V35.7095Z" fill="#5493F7"/>
<g opacity="0.8">
<path d="M42.0458 71.6522L22.4073 60.3203V37.6448L42.0458 48.9826V71.6522V71.6522Z" fill="#1148B7"/>
<path d="M61.6785 60.3203L42.0458 71.6522V48.9826L61.6785 37.6448V60.3203V60.3203Z" fill="#0E3CA5"/>
<path opacity="0.6" d="M42.0458 48.9825L22.4073 37.6448L42.0458 26.3071L61.6784 37.6448L42.0458 48.9825Z" fill="#5493F7"/>
</g>
</svg>
